<?xml version="1.0" standalone="no"?>
<!DOCTYPE svg PUBLIC "-//W3C//DTD SVG 20010904//EN"
 "http://www.w3.org/TR/2001/REC-SVG-20010904/DTD/svg10.dtd">
<svg version="1.0" xmlns="http://www.w3.org/2000/svg"
 width="111.000000pt" height="111.000000pt" viewBox="0 0 111.000000 111.000000"
 preserveAspectRatio="xMidYMid meet">
<metadata>
Created by potrace 1.14, written by Peter Selinger 2001-2017
</metadata>
<g transform="translate(0.000000,111.000000) scale(0.100000,-0.100000)"
fill="#000000" stroke="none">
<path d="M92 703 c3 -402 3 -409 27 -466 30 -76 115 -164 196 -202 80 -37 196
-44 282 -14 158 54 262 200 261 369 -2 254 -253 437 -496 362 -32 -11 -80 -33
-105 -51 l-47 -32 0 221 0 220 -60 0 -61 0 3 -407z m473 -70 c65 -22 136 -93
158 -158 91 -265 -236 -473 -433 -276 -146 146 -86 370 120 444 31 11 108 6
155 -10z"/>
<path d="M891 143 c-12 -10 -24 -35 -27 -55 -12 -74 73 -116 130 -63 72 67
-26 180 -103 118z"/>
</g>
</svg>
